<svg width="24" height="24" viewBox="0 0 24 24" fill="none" xmlns="http://www.w3.org/2000/svg">
<path d="M6.16683 20.3334C5.94582 20.3334 5.73385 20.2456 5.57757 20.0893C5.42129 19.9331 5.3335 19.7211 5.3335 19.5001V4.50008C5.3335 4.27907 5.42129 4.06711 5.57757 3.91083C5.73385 3.75455 5.94582 3.66675 6.16683 3.66675H17.8335C18.0545 3.66675 18.2665 3.75455 18.4228 3.91083C18.579 4.06711 18.6668 4.27907 18.6668 4.50008V7.00008H17.0002V5.33341H7.00016V18.6667H17.0002V17.0001H18.6668V19.5001C18.6668 19.7211 18.579 19.9331 18.4228 20.0893C18.2665 20.2456 18.0545 20.3334 17.8335 20.3334H6.16683ZM17.0002 15.3334V12.8334H11.1668V11.1667H17.0002V8.66675L21.1668 12.0001L17.0002 15.3334Z" fill="#FF9B30"/>
</svg>
